<svg width="25" height="25" viewBox="0 0 25 25" fill="none" xmlns="http://www.w3.org/2000/svg">
<path d="M19.4263 19.7C18.0943 19.7 17.0263 20.768 17.0263 22.1C17.0263 22.7365 17.2792 23.347 17.7293 23.7971C18.1793 24.2471 18.7898 24.5 19.4263 24.5C20.0628 24.5 20.6733 24.2471 21.1234 23.7971C21.5735 23.347 21.8263 22.7365 21.8263 22.1C21.8263 21.4635 21.5735 20.853 21.1234 20.4029C20.6733 19.9529 20.0628 19.7 19.4263 19.7ZM0.226318 0.5V2.9H2.62632L6.94632 12.008L5.31432 14.948C5.13432 15.284 5.02632 15.68 5.02632 16.1C5.02632 16.7365 5.27917 17.347 5.72926 17.7971C6.17935 18.2471 6.7898 18.5 7.42632 18.5H21.8263V16.1H7.93032C7.85075 16.1 7.77445 16.0684 7.71819 16.0121C7.66193 15.9559 7.63032 15.8796 7.63032 15.8C7.63032 15.74 7.64232 15.692 7.66632 15.656L8.74632 13.7H17.6863C18.5863 13.7 19.3783 13.196 19.7863 12.464L24.0823 4.7C24.1663 4.508 24.2263 4.304 24.2263 4.1C24.2263 3.78174 24.0999 3.47652 23.8748 3.25147C23.6498 3.02643 23.3446 2.9 23.0263 2.9H5.27832L4.15032 0.5M7.42632 19.7C6.09432 19.7 5.02632 20.768 5.02632 22.1C5.02632 22.7365 5.27917 23.347 5.72926 23.7971C6.17935 24.2471 6.7898 24.5 7.42632 24.5C8.06284 24.5 8.67329 24.2471 9.12337 23.7971C9.57346 23.347 9.82632 22.7365 9.82632 22.1C9.82632 21.4635 9.57346 20.853 9.12337 20.4029C8.67329 19.9529 8.06284 19.7 7.42632 19.7Z" fill="white"/>
</svg>
