<svg width="52" height="52" viewBox="0 0 52 52" fill="none" xmlns="http://www.w3.org/2000/svg">
<rect width="51.4521" height="51.4521" rx="10" transform="matrix(-1 0 0 1 51.5383 0.312256)" fill="#FF55CC"/>
<path d="M20.9809 14.5332L22.2363 14.1319C23.4134 13.7562 24.6711 14.364 25.1751 15.5517L26.1784 17.9177C26.6148 18.9479 26.3721 20.16 25.5788 20.9137L23.3679 23.0114C23.5044 24.2667 23.9268 25.5022 24.6338 26.7179C25.3052 27.894 26.2057 28.9235 27.2821 29.7454L29.9374 28.8587C30.9431 28.5239 32.0398 28.91 32.6558 29.8165L34.0943 31.9282C34.8118 32.9829 34.6823 34.4365 33.7921 35.3302L32.8389 36.288C31.8893 37.2412 30.5324 37.5877 29.2783 37.1957C26.3149 36.2717 23.5931 33.5289 21.1081 28.9672C18.6196 24.3985 17.7411 20.5205 18.4738 17.3379C18.7818 15.9985 19.7349 14.931 20.9809 14.5332V14.5332Z" fill="white"/>
</svg>
