<svg width="52" height="53" viewBox="0 0 52 53" fill="none" xmlns="http://www.w3.org/2000/svg">
<rect width="51.4521" height="51.4521" rx="10" transform="matrix(-1 0 0 1 51.6248 0.770752)" fill="#FF55CC"/>
<path d="M26.4765 38.6851C28.1864 37.2266 29.7714 35.6276 31.2148 33.9049C33.3808 31.3178 35.953 27.465 35.953 23.7935C35.9539 21.9185 35.3986 20.0853 34.3573 18.526C33.316 16.9666 31.8355 15.7513 30.1032 15.0337C28.3709 14.3161 26.4647 14.1285 24.6257 14.4947C22.7868 14.8609 21.0978 15.7645 19.7726 17.0909C18.8902 17.9693 18.1909 19.014 17.715 20.1645C17.2391 21.315 16.9961 22.5485 17 23.7935C17 27.465 19.5722 31.3178 21.7383 33.9049C23.1817 35.6276 24.7666 37.2266 26.4765 38.6851ZM26.4765 19.7321C27.5537 19.7321 28.5867 20.16 29.3483 20.9217C30.11 21.6833 30.5379 22.7164 30.5379 23.7935C30.5379 24.8706 30.11 25.9037 29.3483 26.6653C28.5867 27.427 27.5537 27.8548 26.4765 27.8548C25.3994 27.8548 24.3664 27.427 23.6047 26.6653C22.8431 25.9037 22.4152 24.8706 22.4152 23.7935C22.4152 22.7164 22.8431 21.6833 23.6047 20.9217C24.3664 20.16 25.3994 19.7321 26.4765 19.7321Z" fill="white"/>
</svg>
