<svg width="91" height="31" viewBox="0 0 91 31" fill="none" xmlns="http://www.w3.org/2000/svg">
<path d="M0.352 24L8.736 0.159998H13.408L21.792 24H17.76L15.936 18.656H6.24L4.384 24H0.352ZM7.328 15.296H14.784L10.56 2.816H11.616L7.328 15.296ZM23.3083 30.4V6.688H26.7643V10.272L26.3483 9.44C26.9883 8.45867 27.8416 7.69067 28.9083 7.136C29.9749 6.58133 31.1909 6.304 32.5563 6.304C34.1989 6.304 35.6709 6.69867 36.9723 7.488C38.2949 8.27733 39.3296 9.35467 40.0763 10.72C40.8443 12.0853 41.2283 13.6213 41.2283 15.328C41.2283 17.0347 40.8443 18.5707 40.0763 19.936C39.3296 21.3013 38.3056 22.3893 37.0043 23.2C35.7029 23.9893 34.2203 24.384 32.5563 24.384C31.2123 24.384 29.9856 24.1067 28.8763 23.552C27.7883 22.9973 26.9456 22.1973 26.3483 21.152L26.9243 20.48V30.4H23.3083ZM32.2043 21.024C33.2283 21.024 34.1349 20.7787 34.9243 20.288C35.7136 19.7973 36.3323 19.1253 36.7803 18.272C37.2496 17.3973 37.4843 16.416 37.4843 15.328C37.4843 14.24 37.2496 13.2693 36.7803 12.416C36.3323 11.5627 35.7136 10.8907 34.9243 10.4C34.1349 9.90933 33.2283 9.664 32.2043 9.664C31.2016 9.664 30.2949 9.90933 29.4843 10.4C28.6949 10.8907 28.0656 11.5627 27.5963 12.416C27.1483 13.2693 26.9243 14.24 26.9243 15.328C26.9243 16.416 27.1483 17.3973 27.5963 18.272C28.0656 19.1253 28.6949 19.7973 29.4843 20.288C30.2949 20.7787 31.2016 21.024 32.2043 21.024ZM51.9138 24.384C50.1858 24.384 48.6498 23.9893 47.3058 23.2C45.9831 22.3893 44.9484 21.3013 44.2018 19.936C43.4551 18.5493 43.0818 17.0027 43.0818 15.296C43.0818 13.5467 43.4551 12 44.2018 10.656C44.9698 9.312 45.9938 8.256 47.2738 7.488C48.5538 6.69867 50.0044 6.304 51.6258 6.304C52.9271 6.304 54.0898 6.528 55.1138 6.976C56.1378 7.424 57.0018 8.04267 57.7058 8.832C58.4098 9.6 58.9431 10.4853 59.3058 11.488C59.6898 12.4907 59.8818 13.5573 59.8818 14.688C59.8818 14.9653 59.8711 15.2533 59.8498 15.552C59.8284 15.8507 59.7858 16.128 59.7218 16.384H45.9298V13.504H57.6738L55.9458 14.816C56.1591 13.7707 56.0844 12.8427 55.7218 12.032C55.3804 11.2 54.8471 10.5493 54.1218 10.08C53.4178 9.58933 52.5858 9.344 51.6258 9.344C50.6658 9.344 49.8124 9.58933 49.0658 10.08C48.3191 10.5493 47.7431 11.232 47.3378 12.128C46.9324 13.0027 46.7724 14.0693 46.8578 15.328C46.7511 16.5013 46.9111 17.5253 47.3378 18.4C47.7858 19.2747 48.4044 19.9573 49.1938 20.448C50.0044 20.9387 50.9218 21.184 51.9458 21.184C52.9911 21.184 53.8764 20.9493 54.6018 20.48C55.3484 20.0107 55.9351 19.4027 56.3618 18.656L59.3058 20.096C58.9644 20.9067 58.4311 21.6427 57.7058 22.304C57.0018 22.944 56.1484 23.456 55.1458 23.84C54.1644 24.2027 53.0871 24.384 51.9138 24.384ZM62.4507 24V6.688H65.9067V10.176L65.5867 9.664C65.9707 8.53333 66.5894 7.72267 67.4427 7.232C68.2961 6.72 69.3201 6.464 70.5147 6.464H71.5707V9.76H70.0667C68.8721 9.76 67.9014 10.1333 67.1547 10.88C66.4294 11.6053 66.0667 12.6507 66.0667 14.016V24H62.4507Z" fill="white"/>
<path d="M81.4365 24.384C79.7725 24.384 78.2472 23.9893 76.8605 23.2C75.4952 22.4107 74.4072 21.3333 73.5965 19.968C72.7858 18.6027 72.3805 17.056 72.3805 15.328C72.3805 13.5787 72.7858 12.032 73.5965 10.688C74.4072 9.32267 75.4952 8.256 76.8605 7.488C78.2258 6.69867 79.7512 6.304 81.4365 6.304C83.1432 6.304 84.6685 6.69867 86.0125 7.488C87.3778 8.256 88.4552 9.32267 89.2445 10.688C90.0552 12.032 90.4605 13.5787 90.4605 15.328C90.4605 17.0773 90.0552 18.6347 89.2445 20C88.4338 21.3653 87.3458 22.4427 85.9805 23.232C84.6152 24 83.1005 24.384 81.4365 24.384ZM81.4365 21.024C82.4605 21.024 83.3672 20.7787 84.1565 20.288C84.9458 19.7973 85.5645 19.1253 86.0125 18.272C86.4818 17.3973 86.7165 16.416 86.7165 15.328C86.7165 14.24 86.4818 13.2693 86.0125 12.416C85.5645 11.5627 84.9458 10.8907 84.1565 10.4C83.3672 9.90933 82.4605 9.664 81.4365 9.664C80.4338 9.664 79.5272 9.90933 78.7165 10.4C77.9272 10.8907 77.2978 11.5627 76.8285 12.416C76.3805 13.2693 76.1565 14.24 76.1565 15.328C76.1565 16.416 76.3805 17.3973 76.8285 18.272C77.2978 19.1253 77.9272 19.7973 78.7165 20.288C79.5272 20.7787 80.4338 21.024 81.4365 21.024Z" fill="black"/>
</svg>
