<svg width="52" height="53" viewBox="0 0 52 53" fill="none" xmlns="http://www.w3.org/2000/svg">
<rect width="51.4521" height="51.4521" rx="10" transform="matrix(-1 0 0 1 51.6248 0.85376)" fill="#FF55CC"/>
<g clip-path="url(#clip0_327_168)">
<path d="M35.25 18.3123H29.25C28.838 18.3123 28.261 18.5513 27.97 18.8423L20.531 26.2813C20.3908 26.4222 20.312 26.6129 20.312 26.8118C20.312 27.0106 20.3908 27.2013 20.531 27.3423L26.97 33.7813C27.111 33.9215 27.3017 34.0003 27.5005 34.0003C27.6994 34.0003 27.8901 33.9215 28.031 33.7813L35.47 26.3423C35.762 26.0503 36 25.4743 36 25.0623V19.0623C35.9995 18.8635 35.9203 18.673 35.7798 18.5325C35.6392 18.392 35.4488 18.3128 35.25 18.3123V18.3123ZM31.5 24.3123C31.303 24.3122 31.1079 24.2733 30.9258 24.1978C30.7438 24.1224 30.5784 24.0118 30.4392 23.8724C30.2999 23.733 30.1894 23.5676 30.1141 23.3855C30.0387 23.2034 30 23.0083 30 22.8113C30.0001 22.6142 30.039 22.4191 30.1144 22.2371C30.1899 22.0551 30.3005 21.8897 30.4399 21.7504C30.5792 21.6111 30.7447 21.5006 30.9268 21.4253C31.1088 21.3499 31.304 21.3112 31.501 21.3113C31.899 21.3114 32.2806 21.4696 32.5619 21.7511C32.8432 22.0326 33.0012 22.4143 33.001 22.8123C33.0009 23.2102 32.8427 23.5918 32.5612 23.8731C32.2797 24.1544 31.898 24.3124 31.5 24.3123V24.3123Z" fill="white"/>
<path d="M18 26.8123L26.5 18.3123H25.25C24.838 18.3123 24.261 18.5513 23.97 18.8423L16.531 26.2813C16.3908 26.4222 16.312 26.6129 16.312 26.8118C16.312 27.0106 16.3908 27.2013 16.531 27.3423L22.97 33.7813C23.111 33.9215 23.3017 34.0003 23.5005 34.0003C23.6994 34.0003 23.8901 33.9215 24.031 33.7813L24.501 33.3113L18.001 26.8113L18 26.8123Z" fill="white"/>
</g>
<defs>
<clipPath id="clip0_327_168">
<rect width="20" height="16" fill="white" transform="translate(16 18.3123)"/>
</clipPath>
</defs>
</svg>
