<svg width="1112" height="107" viewBox="0 0 1112 107" fill="none" xmlns="http://www.w3.org/2000/svg">
<rect opacity="0.14" width="106" height="106" rx="30" fill="white"/>
<path d="M52.9997 78.4631C49.477 75.4583 46.2118 72.1642 43.2381 68.6151C38.7757 63.2853 33.4766 55.3477 33.4766 47.7839C33.4746 43.921 34.6187 40.1444 36.764 36.9319C38.9092 33.7195 41.9593 31.2156 45.5281 29.7373C49.0969 28.2589 53.0241 27.8725 56.8126 28.6269C60.6011 29.3814 64.0807 31.2427 66.8109 33.9755C68.6287 35.7851 70.0695 37.9374 71.0499 40.3076C72.0304 42.6778 72.531 45.2189 72.5229 47.7839C72.5229 55.3477 67.2237 63.2853 62.7613 68.6151C59.7876 72.1642 56.5224 75.4583 52.9997 78.4631ZM52.9997 39.4168C50.7806 39.4168 48.6524 40.2984 47.0833 41.8675C45.5142 43.4366 44.6326 45.5648 44.6326 47.7839C44.6326 50.003 45.5142 52.1312 47.0833 53.7003C48.6524 55.2694 50.7806 56.151 52.9997 56.151C55.2188 56.151 57.347 55.2694 58.9161 53.7003C60.4852 52.1312 61.3668 50.003 61.3668 47.7839C61.3668 45.5648 60.4852 43.4366 58.9161 41.8675C57.347 40.2984 55.2188 39.4168 52.9997 39.4168Z" fill="white"/>
<rect opacity="0.14" x="504" y="0.356934" width="106" height="106" rx="30" fill="white"/>
<path d="M579.5 73.5969C579.5 74.5704 578.695 75.3569 577.7 75.3569H536.3C535.304 75.3569 534.5 74.5704 534.5 73.5969V50.4969H579.5V73.5969ZM536.3 35.3169H545.75V31.7969C545.75 31.5549 545.952 31.3569 546.2 31.3569H549.35C549.597 31.3569 549.8 31.5549 549.8 31.7969V35.3169H564.2V31.7969C564.2 31.5549 564.402 31.3569 564.65 31.3569H567.8C568.047 31.3569 568.25 31.5549 568.25 31.7969V35.3169H577.7C578.695 35.3169 579.5 36.1034 579.5 37.0769V46.7569H534.5V37.0769C534.5 36.1034 535.304 35.3169 536.3 35.3169Z" fill="white"/>
<path d="M1059 40.4995V34.3999C1059 29.3697 1060.23 28.153 1067.2 29.5238L1078.71 31.7824M1039.29 40.4995L1043.03 66.1679C1043.59 70.025 1043.88 71.9524 1045.75 73.1163C1049.62 75.5175 1068.03 75.736 1072.25 73.1163C1074.12 71.9524 1074.41 70.025 1074.97 66.1702L1078.71 40.4995M1036 40.4995H1082M1042.57 51.9997H1075.43M1042.57 61.1998H1075.43" stroke="white" stroke-width="2.875" stroke-linecap="round" stroke-linejoin="round"/>
<rect opacity="0.14" x="1006" y="0.356934" width="106" height="106" rx="30" fill="white"/>
<path d="M485.52 14.2985C485.793 14.3377 486.047 14.1478 486.086 13.8745C486.125 13.6012 485.935 13.3478 485.662 13.3086L485.52 14.2985ZM130.911 88.7655C172.981 96.1326 202.902 93.2455 227.452 85.2243C251.986 77.2087 271.129 64.0714 291.605 51.0251C312.091 37.9731 333.947 24.9854 363.981 17.1591C394.016 9.3328 432.262 6.66033 485.52 14.2985L485.662 13.3086C432.303 5.65599 393.919 8.32459 363.729 16.1914C333.538 24.0584 311.575 37.116 291.068 50.1818C270.552 63.2534 251.528 76.3063 227.142 84.2738C202.773 92.2357 173.021 95.1244 131.084 87.7805L130.911 88.7655Z" fill="white"/>
<path d="M982.895 14.2985C983.169 14.3377 983.422 14.1478 983.461 13.8745C983.5 13.6012 983.311 13.3478 983.037 13.3086L982.895 14.2985ZM628.287 88.7655C670.356 96.1326 700.277 93.2455 724.828 85.2243C749.361 77.2087 768.504 64.0714 788.981 51.0251C809.466 37.9731 831.322 24.9854 861.356 17.1591C891.391 9.3328 929.638 6.66033 982.895 14.2985L983.037 13.3086C929.679 5.65599 891.294 8.32459 861.104 16.1914C830.914 24.0584 808.951 37.116 788.443 50.1818C767.927 63.2534 748.904 76.3063 724.517 84.2738C700.148 92.2357 670.396 95.1244 628.459 87.7805L628.287 88.7655Z" fill="white"/>
</svg>
