<svg width="419" height="654" viewBox="0 0 419 654" fill="none" xmlns="http://www.w3.org/2000/svg">
<path d="M0 26H418.462V623.693C418.462 640.261 405.03 653.693 388.462 653.693H30C13.4314 653.693 0 640.261 0 623.693V26Z" fill="#BDBB57"/>
<path d="M31 300H387V15H31V300Z" fill="#ADAA2D"/>
<path d="M230.714 321.069C197.807 315.787 152.571 283.44 152.571 283.44C152.571 283.44 107.336 251.093 74.4286 245.811C57.7574 243.135 43.7272 247.321 31 254.893V518H387V245.811C321.185 235.246 296.53 331.633 230.714 321.069Z" fill="#9C9903"/>
<path d="M109.033 292.069C76.1718 286.787 31 254.44 31 254.44V569H387V280.287C363.598 269.095 343.133 254.44 343.133 254.44C343.133 254.44 297.961 222.093 265.1 216.811C199.377 206.246 174.756 302.633 109.033 292.069Z" fill="#DEDDAB"/>
<path d="M31 569H387V584C387 600.569 373.569 614 357 614H61C44.4315 614 31 600.569 31 584V569Z" fill="#DEDDAB"/>
<path d="M159.004 330.415V296.145H166.134V313.303L164.156 312.613L177.864 296.145H186.788L173.218 312.521L173.632 307.461L187.064 330.415H178.738L170.366 315.925L166.134 321.031V330.415H159.004ZM190.585 330.415V296.145H197.715V330.415H190.585ZM210.232 330.415L201.262 296.145H208.99L215.752 324.849H213.682L220.812 296.145H228.172L235.302 324.849H233.232L239.994 296.145H247.722L238.752 330.415H230.472L223.296 302.815H225.688L218.512 330.415H210.232ZM251.274 330.415V296.145H258.404V330.415H251.274ZM105.121 386.967C102.667 386.967 100.383 386.522 98.2665 385.633C96.1812 384.743 94.3565 383.501 92.7925 381.907C91.2285 380.312 90.0019 378.441 89.1125 376.295C88.2539 374.148 87.8245 371.802 87.8245 369.257C87.8245 366.711 88.2539 364.365 89.1125 362.219C89.9712 360.041 91.1825 358.171 92.7465 356.607C94.3105 355.012 96.1352 353.785 98.2205 352.927C100.337 352.037 102.637 351.593 105.121 351.593C107.605 351.593 109.828 352.007 111.791 352.835C113.784 353.663 115.471 354.767 116.851 356.147C118.231 357.527 119.212 359.06 119.795 360.747L113.493 363.783C112.91 362.127 111.883 360.762 110.411 359.689C108.969 358.585 107.206 358.033 105.121 358.033C103.097 358.033 101.318 358.508 99.7845 359.459C98.2512 360.409 97.0552 361.728 96.1965 363.415C95.3685 365.071 94.9545 367.018 94.9545 369.257C94.9545 371.495 95.3685 373.458 96.1965 375.145C97.0552 376.831 98.2512 378.15 99.7845 379.101C101.318 380.051 103.097 380.527 105.121 380.527C107.206 380.527 108.969 379.99 110.411 378.917C111.883 377.813 112.91 376.433 113.493 374.777L119.795 377.813C119.212 379.499 118.231 381.033 116.851 382.413C115.471 383.793 113.784 384.897 111.791 385.725C109.828 386.553 107.605 386.967 105.121 386.967ZM124.37 386.415V352.145H137.48C139.841 352.145 141.926 352.559 143.736 353.387C145.576 354.215 147.017 355.441 148.06 357.067C149.102 358.692 149.624 360.701 149.624 363.093C149.624 365.423 149.087 367.417 148.014 369.073C146.94 370.698 145.499 371.925 143.69 372.753L151.51 386.415H143.506L135.042 371.281L139.642 373.995H131.5V386.415H124.37ZM131.5 367.785H137.526C138.538 367.785 139.412 367.585 140.148 367.187C140.884 366.788 141.451 366.236 141.85 365.531C142.279 364.825 142.494 364.013 142.494 363.093C142.494 362.142 142.279 361.314 141.85 360.609C141.451 359.903 140.884 359.351 140.148 358.953C139.412 358.554 138.538 358.355 137.526 358.355H131.5V367.785ZM155.051 386.415V352.145H178.097V358.355H162.181V366.129H177.177V372.339H162.181V380.205H178.097V386.415H155.051ZM182.139 386.415V352.145H189.039L201.873 369.165H198.653L211.119 352.145H218.019V386.415H210.889V360.011L213.741 360.655L200.539 377.675H199.619L186.877 360.655L189.269 360.011V386.415H182.139ZM241.254 386.967C238.678 386.967 236.286 386.522 234.078 385.633C231.87 384.743 229.938 383.501 228.282 381.907C226.657 380.281 225.384 378.395 224.464 376.249C223.544 374.102 223.084 371.771 223.084 369.257C223.084 366.742 223.529 364.411 224.418 362.265C225.338 360.118 226.611 358.247 228.236 356.653C229.892 355.058 231.824 353.816 234.032 352.927C236.24 352.037 238.648 351.593 241.254 351.593C243.861 351.593 246.268 352.037 248.476 352.927C250.684 353.816 252.601 355.058 254.226 356.653C255.882 358.247 257.155 360.118 258.044 362.265C258.964 364.411 259.424 366.742 259.424 369.257C259.424 371.771 258.964 374.102 258.044 376.249C257.124 378.395 255.836 380.281 254.18 381.907C252.555 383.501 250.638 384.743 248.43 385.633C246.222 386.522 243.83 386.967 241.254 386.967ZM241.254 380.527C242.818 380.527 244.26 380.251 245.578 379.699C246.928 379.147 248.108 378.38 249.12 377.399C250.132 376.387 250.914 375.191 251.466 373.811C252.018 372.431 252.294 370.913 252.294 369.257C252.294 367.601 252.018 366.098 251.466 364.749C250.914 363.369 250.132 362.173 249.12 361.161C248.108 360.149 246.928 359.382 245.578 358.861C244.26 358.309 242.818 358.033 241.254 358.033C239.69 358.033 238.234 358.309 236.884 358.861C235.566 359.382 234.4 360.149 233.388 361.161C232.376 362.173 231.594 363.369 231.042 364.749C230.49 366.098 230.214 367.601 230.214 369.257C230.214 370.913 230.49 372.431 231.042 373.811C231.594 375.191 232.376 376.387 233.388 377.399C234.4 378.38 235.566 379.147 236.884 379.699C238.234 380.251 239.69 380.527 241.254 380.527ZM276.947 386.967C274.8 386.967 272.776 386.583 270.875 385.817C269.004 385.019 267.379 383.9 265.999 382.459C264.65 381.017 263.638 379.315 262.963 377.353L268.805 374.731C269.664 376.601 270.844 378.073 272.347 379.147C273.88 380.22 275.567 380.757 277.407 380.757C278.388 380.757 279.232 380.603 279.937 380.297C280.642 379.99 281.194 379.576 281.593 379.055C281.992 378.503 282.191 377.859 282.191 377.123C282.191 376.325 281.946 375.651 281.455 375.099C280.964 374.516 280.198 374.056 279.155 373.719L272.439 371.511C269.71 370.621 267.655 369.364 266.275 367.739C264.895 366.083 264.205 364.105 264.205 361.805C264.205 359.781 264.696 358.002 265.677 356.469C266.689 354.935 268.084 353.739 269.863 352.881C271.672 352.022 273.742 351.593 276.073 351.593C278.128 351.593 280.029 351.945 281.777 352.651C283.525 353.356 285.028 354.353 286.285 355.641C287.573 356.929 288.539 358.477 289.183 360.287L283.387 362.909C282.743 361.314 281.777 360.072 280.489 359.183C279.201 358.263 277.729 357.803 276.073 357.803C275.122 357.803 274.279 357.956 273.543 358.263C272.807 358.569 272.24 359.014 271.841 359.597C271.442 360.149 271.243 360.793 271.243 361.529C271.243 362.326 271.504 363.031 272.025 363.645C272.546 364.227 273.328 364.687 274.371 365.025L280.949 367.141C283.709 368.03 285.764 369.272 287.113 370.867C288.493 372.461 289.183 374.409 289.183 376.709C289.183 378.702 288.662 380.481 287.619 382.045C286.576 383.578 285.135 384.789 283.295 385.679C281.486 386.537 279.37 386.967 276.947 386.967ZM311.422 386.967C308.846 386.967 306.454 386.522 304.246 385.633C302.038 384.743 300.106 383.501 298.45 381.907C296.825 380.281 295.552 378.395 294.632 376.249C293.712 374.102 293.252 371.771 293.252 369.257C293.252 366.742 293.697 364.411 294.586 362.265C295.506 360.118 296.779 358.247 298.404 356.653C300.06 355.058 301.992 353.816 304.2 352.927C306.408 352.037 308.816 351.593 311.422 351.593C314.029 351.593 316.436 352.037 318.644 352.927C320.852 353.816 322.769 355.058 324.394 356.653C326.05 358.247 327.323 360.118 328.212 362.265C329.132 364.411 329.592 366.742 329.592 369.257C329.592 371.771 329.132 374.102 328.212 376.249C327.292 378.395 326.004 380.281 324.348 381.907C322.723 383.501 320.806 384.743 318.598 385.633C316.39 386.522 313.998 386.967 311.422 386.967ZM311.422 380.527C312.986 380.527 314.428 380.251 315.746 379.699C317.096 379.147 318.276 378.38 319.288 377.399C320.3 376.387 321.082 375.191 321.634 373.811C322.186 372.431 322.462 370.913 322.462 369.257C322.462 367.601 322.186 366.098 321.634 364.749C321.082 363.369 320.3 362.173 319.288 361.161C318.276 360.149 317.096 359.382 315.746 358.861C314.428 358.309 312.986 358.033 311.422 358.033C309.858 358.033 308.402 358.309 307.052 358.861C305.734 359.382 304.568 360.149 303.556 361.161C302.544 362.173 301.762 363.369 301.21 364.749C300.658 366.098 300.382 367.601 300.382 369.257C300.382 370.913 300.658 372.431 301.21 373.811C301.762 375.191 302.544 376.387 303.556 377.399C304.568 378.38 305.734 379.147 307.052 379.699C308.402 380.251 309.858 380.527 311.422 380.527Z" fill="white"/>
<path d="M209.06 537.12C222.348 537.12 233.12 526.348 233.12 513.06C233.12 499.772 222.348 489 209.06 489C195.772 489 185 499.772 185 513.06C185 526.348 195.772 537.12 209.06 537.12Z" stroke="white" stroke-width="3.83333" stroke-linecap="round" stroke-linejoin="round"/>
<path d="M209.06 498.624V501.03M216.278 505.842L218.684 503.436M221.09 513.06H223.496M216.278 520.278L218.684 522.684M209.06 525.09V527.496M199.436 522.684L201.842 520.278M194.624 513.06H197.03M199.436 503.436L201.842 505.842" stroke="white" stroke-width="3.83333" stroke-linecap="round" stroke-linejoin="round"/>
<ellipse cx="209.231" cy="26.1539" rx="209.231" ry="26.1539" fill="#DEDDAB"/>
<ellipse cx="208.846" cy="26.2308" rx="177.846" ry="22.2308" fill="url(#paint0_linear_129_671)" fill-opacity="0.55"/>
<defs>
<linearGradient id="paint0_linear_129_671" x1="31" y1="26.2308" x2="259.061" y2="178.708" gradientUnits="userSpaceOnUse">
<stop offset="0.282342" stop-color="#ADAA2D"/>
<stop offset="1" stop-color="#686602"/>
</linearGradient>
</defs>
</svg>
