<svg width="419" height="654" viewBox="0 0 419 654" fill="none" xmlns="http://www.w3.org/2000/svg">
<path d="M0 26H418.462V623.693C418.462 640.261 405.03 653.693 388.462 653.693H30C13.4314 653.693 0 640.261 0 623.693V26Z" fill="#069AE9"/>
<path d="M31 300H387V15H31V300Z" fill="#04679B" fill-opacity="0.4"/>
<g opacity="0.56">
<rect width="80" height="80" rx="30" transform="matrix(-0.642788 -0.766044 -0.766044 0.642788 390.707 254.284)" fill="#99ECFF"/>
<rect width="67" height="67" rx="30" transform="matrix(-0.642788 -0.766044 -0.766044 0.642788 381.981 248.552)" fill="#76E6FF"/>
<g filter="url(#filter0_f_162_552)">
<rect width="15" height="15" rx="7.5" transform="matrix(-0.642788 -0.766044 -0.766044 0.642788 347.596 227.798)" fill="white"/>
</g>
</g>
<path d="M230.714 321.069C197.807 315.787 152.571 283.44 152.571 283.44C152.571 283.44 107.336 251.093 74.4286 245.811C57.7574 243.135 43.7272 247.321 31 254.893V518H387V245.811C321.185 235.246 296.53 331.633 230.714 321.069Z" fill="#04679B"/>
<g opacity="0.56">
<rect x="23" y="277.569" width="80" height="80" rx="30" transform="rotate(-45 23 277.569)" fill="#99ECFF"/>
<rect x="32.1924" y="272.619" width="67" height="67" rx="30" transform="rotate(-45 32.1924 272.619)" fill="#76E6FF"/>
<g filter="url(#filter1_f_162_552)">
<rect x="68.2548" y="254.941" width="15" height="15" rx="7.5" transform="rotate(-45 68.2548 254.941)" fill="white"/>
</g>
</g>
<path d="M109.033 292.069C76.1718 286.787 31 254.44 31 254.44V569H387V280.287C363.598 269.095 343.133 254.44 343.133 254.44C343.133 254.44 297.961 222.093 265.1 216.811C199.377 206.246 174.756 302.633 109.033 292.069Z" fill="#59BCF0"/>
<path d="M31 569H387V584C387 600.569 373.569 614 357 614H61C44.4315 614 31 600.569 31 584V569Z" fill="#59BCF0"/>
<path d="M95.6263 333.835C93.993 333.835 92.453 333.543 91.0063 332.96C89.583 332.353 88.3463 331.501 87.2963 330.405C86.2696 329.308 85.4996 328.013 84.9863 326.52L89.4313 324.525C90.0846 325.948 90.983 327.068 92.1263 327.885C93.293 328.701 94.5763 329.11 95.9763 329.11C96.723 329.11 97.3646 328.993 97.9013 328.76C98.438 328.526 98.858 328.211 99.1613 327.815C99.4646 327.395 99.6163 326.905 99.6163 326.345C99.6163 325.738 99.4296 325.225 99.0563 324.805C98.683 324.361 98.0996 324.011 97.3063 323.755L92.1963 322.075C90.1196 321.398 88.5563 320.441 87.5063 319.205C86.4563 317.945 85.9313 316.44 85.9313 314.69C85.9313 313.15 86.3046 311.796 87.0513 310.63C87.8213 309.463 88.883 308.553 90.2363 307.9C91.613 307.246 93.188 306.92 94.9613 306.92C96.5246 306.92 97.9713 307.188 99.3013 307.725C100.631 308.261 101.775 309.02 102.731 310C103.711 310.98 104.446 312.158 104.936 313.535L100.526 315.53C100.036 314.316 99.3013 313.371 98.3213 312.695C97.3413 311.995 96.2213 311.645 94.9613 311.645C94.238 311.645 93.5963 311.761 93.0363 311.995C92.4763 312.228 92.0446 312.566 91.7413 313.01C91.438 313.43 91.2863 313.92 91.2863 314.48C91.2863 315.086 91.4846 315.623 91.8813 316.09C92.278 316.533 92.873 316.883 93.6663 317.14L98.6713 318.75C100.771 319.426 102.335 320.371 103.361 321.585C104.411 322.798 104.936 324.28 104.936 326.03C104.936 327.546 104.54 328.9 103.746 330.09C102.953 331.256 101.856 332.178 100.456 332.855C99.0796 333.508 97.4696 333.835 95.6263 333.835ZM108.802 333.415V307.34H114.052L123.817 320.29H121.367L130.852 307.34H136.102V333.415H130.677V313.325L132.847 313.815L122.802 326.765H122.102L112.407 313.815L114.227 313.325V333.415H108.802ZM140.726 333.415V307.34H146.151V333.415H140.726ZM150.775 333.415V307.34H160.75C162.547 307.34 164.133 307.655 165.51 308.285C166.91 308.915 168.007 309.848 168.8 311.085C169.593 312.321 169.99 313.85 169.99 315.67C169.99 317.443 169.582 318.96 168.765 320.22C167.948 321.456 166.852 322.39 165.475 323.02L171.425 333.415H165.335L158.895 321.9L162.395 323.965H156.2V333.415H150.775ZM156.2 319.24H160.785C161.555 319.24 162.22 319.088 162.78 318.785C163.34 318.481 163.772 318.061 164.075 317.525C164.402 316.988 164.565 316.37 164.565 315.67C164.565 314.946 164.402 314.316 164.075 313.78C163.772 313.243 163.34 312.823 162.78 312.52C162.22 312.216 161.555 312.065 160.785 312.065H156.2V319.24ZM174.12 333.415V307.34H178.285L192.285 325.785L190.045 326.31V307.34H195.47V333.415H191.27L177.515 314.83L179.545 314.305V333.415H174.12ZM213.151 333.835C211.191 333.835 209.371 333.496 207.691 332.82C206.011 332.143 204.541 331.198 203.281 329.985C202.045 328.748 201.076 327.313 200.376 325.68C199.676 324.046 199.326 322.273 199.326 320.36C199.326 318.446 199.665 316.673 200.341 315.04C201.041 313.406 202.01 311.983 203.246 310.77C204.506 309.556 205.976 308.611 207.656 307.935C209.336 307.258 211.168 306.92 213.151 306.92C215.135 306.92 216.966 307.258 218.646 307.935C220.326 308.611 221.785 309.556 223.021 310.77C224.281 311.983 225.25 313.406 225.926 315.04C226.626 316.673 226.976 318.446 226.976 320.36C226.976 322.273 226.626 324.046 225.926 325.68C225.226 327.313 224.246 328.748 222.986 329.985C221.75 331.198 220.291 332.143 218.611 332.82C216.931 333.496 215.111 333.835 213.151 333.835ZM213.151 328.935C214.341 328.935 215.438 328.725 216.441 328.305C217.468 327.885 218.366 327.301 219.136 326.555C219.906 325.785 220.501 324.875 220.921 323.825C221.341 322.775 221.551 321.62 221.551 320.36C221.551 319.1 221.341 317.956 220.921 316.93C220.501 315.88 219.906 314.97 219.136 314.2C218.366 313.43 217.468 312.846 216.441 312.45C215.438 312.03 214.341 311.82 213.151 311.82C211.961 311.82 210.853 312.03 209.826 312.45C208.823 312.846 207.936 313.43 207.166 314.2C206.396 314.97 205.801 315.88 205.381 316.93C204.961 317.956 204.751 319.1 204.751 320.36C204.751 321.62 204.961 322.775 205.381 323.825C205.801 324.875 206.396 325.785 207.166 326.555C207.936 327.301 208.823 327.885 209.826 328.305C210.853 328.725 211.961 328.935 213.151 328.935ZM230.824 333.415V307.34H248.674V312.065H236.249V318.68H246.924V323.405H236.249V333.415H230.824ZM251.366 333.415V307.34H269.216V312.065H256.791V318.68H267.466V323.405H256.791V333.415H251.366ZM278.197 333.415V307.34H283.622V333.415H278.197ZM300.636 333.835C298.769 333.835 297.031 333.496 295.421 332.82C293.834 332.143 292.446 331.198 291.256 329.985C290.066 328.771 289.132 327.348 288.456 325.715C287.802 324.081 287.476 322.296 287.476 320.36C287.476 318.423 287.802 316.638 288.456 315.005C289.109 313.348 290.031 311.925 291.221 310.735C292.411 309.521 293.799 308.588 295.386 307.935C296.996 307.258 298.746 306.92 300.636 306.92C302.526 306.92 304.217 307.235 305.711 307.865C307.227 308.495 308.511 309.335 309.561 310.385C310.611 311.435 311.357 312.601 311.801 313.885L307.006 316.195C306.562 314.935 305.781 313.896 304.661 313.08C303.564 312.24 302.222 311.82 300.636 311.82C299.096 311.82 297.742 312.181 296.576 312.905C295.409 313.628 294.499 314.631 293.846 315.915C293.216 317.175 292.901 318.656 292.901 320.36C292.901 322.063 293.216 323.556 293.846 324.84C294.499 326.123 295.409 327.126 296.576 327.85C297.742 328.573 299.096 328.935 300.636 328.935C302.222 328.935 303.564 328.526 304.661 327.71C305.781 326.87 306.562 325.82 307.006 324.56L311.801 326.87C311.357 328.153 310.611 329.32 309.561 330.37C308.511 331.42 307.227 332.26 305.711 332.89C304.217 333.52 302.526 333.835 300.636 333.835ZM315.282 333.415V307.34H332.817V312.065H320.707V317.98H332.117V322.705H320.707V328.69H332.817V333.415H315.282ZM166.737 375.415V349.34H177.762C179.559 349.34 181.099 349.643 182.382 350.25C183.665 350.856 184.645 351.731 185.322 352.875C185.999 353.995 186.337 355.36 186.337 356.97C186.337 358.113 186.022 359.21 185.392 360.26C184.762 361.286 183.724 362.15 182.277 362.85V360.19C183.654 360.726 184.715 361.368 185.462 362.115C186.209 362.861 186.722 363.678 187.002 364.565C187.282 365.428 187.422 366.338 187.422 367.295C187.422 369.861 186.57 371.856 184.867 373.28C183.164 374.703 180.795 375.415 177.762 375.415H166.737ZM172.162 370.69H178.392C179.489 370.69 180.364 370.375 181.017 369.745C181.67 369.115 181.997 368.298 181.997 367.295C181.997 366.268 181.67 365.44 181.017 364.81C180.364 364.18 179.489 363.865 178.392 363.865H172.162V370.69ZM172.162 359.14H178.147C178.987 359.14 179.652 358.906 180.142 358.44C180.655 357.95 180.912 357.308 180.912 356.515C180.912 355.721 180.655 355.091 180.142 354.625C179.652 354.135 178.987 353.89 178.147 353.89H172.162V359.14ZM190.902 375.415V349.34H196.327V370.69H207.352V375.415H190.902ZM219.719 375.835C217.666 375.835 215.834 375.403 214.224 374.54C212.614 373.676 211.342 372.498 210.409 371.005C209.499 369.488 209.044 367.773 209.044 365.86V349.34H214.469V365.51C214.469 366.536 214.691 367.47 215.134 368.31C215.601 369.126 216.231 369.768 217.024 370.235C217.817 370.701 218.716 370.935 219.719 370.935C220.746 370.935 221.644 370.701 222.414 370.235C223.207 369.768 223.826 369.126 224.269 368.31C224.736 367.47 224.969 366.536 224.969 365.51V349.34H230.394V365.86C230.394 367.773 229.927 369.488 228.994 371.005C228.084 372.498 226.824 373.676 225.214 374.54C223.604 375.403 221.772 375.835 219.719 375.835ZM234.686 375.415V349.34H252.221V354.065H240.111V359.98H251.521V364.705H240.111V370.69H252.221V375.415H234.686Z" fill="white"/>
<path d="M225.479 489L233.12 496.641L222.122 507.64V516.592L202.905 535.809C202.065 536.649 200.927 537.12 199.74 537.12C198.553 537.12 197.414 536.649 196.575 535.809L186.311 525.545C185.471 524.706 185 523.567 185 522.38C185 521.193 185.471 520.055 186.311 519.215L205.528 499.998H214.48L225.479 489ZM193.025 518.831L189.475 522.38L199.74 532.645L203.289 529.095L193.025 518.831ZM215.407 516.977L217.645 514.739V505.786L226.79 496.641L225.479 495.33L216.334 504.475H207.381L205.143 506.713L215.407 516.977ZM215.407 516.977L212.242 520.142L201.978 509.878L196.19 515.666L206.454 525.93M201.973 515.661H206.459V520.147H201.973V515.661Z" fill="white"/>
<ellipse cx="209.231" cy="26.1539" rx="209.231" ry="26.1539" fill="#59BCF0"/>
<ellipse cx="208.846" cy="26.2308" rx="177.846" ry="22.2308" fill="url(#paint0_linear_162_552)" fill-opacity="0.55"/>
<defs>
<filter id="filter0_f_162_552" x="319.53" y="209.373" width="35.0004" height="35.0004" filterUnits="userSpaceOnUse" color-interpolation-filters="sRGB">
<feFlood flood-opacity="0" result="BackgroundImageFix"/>
<feBlend mode="normal" in="SourceGraphic" in2="BackgroundImageFix" result="shape"/>
<feGaussianBlur stdDeviation="5" result="effect1_foregroundBlur_162_552"/>
</filter>
<filter id="filter1_f_162_552" x="61.3615" y="237.441" width="35" height="35" filterUnits="userSpaceOnUse" color-interpolation-filters="sRGB">
<feFlood flood-opacity="0" result="BackgroundImageFix"/>
<feBlend mode="normal" in="SourceGraphic" in2="BackgroundImageFix" result="shape"/>
<feGaussianBlur stdDeviation="5" result="effect1_foregroundBlur_162_552"/>
</filter>
<linearGradient id="paint0_linear_162_552" x1="31" y1="26.2308" x2="259.061" y2="178.708" gradientUnits="userSpaceOnUse">
<stop offset="0.282342" stop-color="#0586CA"/>
<stop offset="1" stop-color="#02334E"/>
</linearGradient>
</defs>
</svg>
