<svg width="419" height="654" viewBox="0 0 419 654" fill="none" xmlns="http://www.w3.org/2000/svg">
<path d="M0 26H418.462V623.693C418.462 640.261 405.03 653.693 388.462 653.693H30C13.4314 653.693 0 640.261 0 623.693V26Z" fill="#AE00FF"/>
<path d="M31 300H387V15H31V300Z" fill="#9100D5"/>
<g opacity="0.56">
<rect width="80" height="80" rx="30" transform="matrix(-0.642788 -0.766044 -0.766044 0.642788 390.707 254.284)" fill="#99ECFF"/>
<rect width="67" height="67" rx="30" transform="matrix(-0.642788 -0.766044 -0.766044 0.642788 381.981 248.552)" fill="#76E6FF"/>
<g filter="url(#filter0_f_174_96)">
<rect width="15" height="15" rx="7.5" transform="matrix(-0.642788 -0.766044 -0.766044 0.642788 347.596 227.798)" fill="white"/>
</g>
</g>
<path d="M230.714 321.069C197.807 315.787 152.571 283.44 152.571 283.44C152.571 283.44 107.336 251.093 74.4286 245.811C57.7574 243.135 43.7272 247.321 31 254.893V518H387V245.811C321.185 235.246 296.53 331.633 230.714 321.069Z" fill="#7400AA"/>
<g opacity="0.56">
<rect x="23" y="277.569" width="80" height="80" rx="30" transform="rotate(-45 23 277.569)" fill="#99ECFF"/>
<rect x="32.1924" y="272.619" width="67" height="67" rx="30" transform="rotate(-45 32.1924 272.619)" fill="#76E6FF"/>
<g filter="url(#filter1_f_174_96)">
<rect x="68.2548" y="254.941" width="15" height="15" rx="7.5" transform="rotate(-45 68.2548 254.941)" fill="white"/>
</g>
</g>
<path d="M109.033 292.069C76.1718 286.787 31 254.44 31 254.44V569H387V280.287C363.598 269.095 343.133 254.44 343.133 254.44C343.133 254.44 297.961 222.093 265.1 216.811C199.377 206.246 174.756 302.633 109.033 292.069Z" fill="#D780FF"/>
<path d="M31 569H387V584C387 600.569 373.569 614 357 614H61C44.4315 614 31 600.569 31 584V569Z" fill="#D780FF"/>
<path d="M141.751 331V298.22H148.351L160.627 314.5H157.547L169.471 298.22H176.071V331H169.251V305.744L171.979 306.36L159.351 322.64H158.471L146.283 306.36L148.571 305.744V331H141.751ZM198.296 331.528C195.832 331.528 193.544 331.103 191.432 330.252C189.32 329.401 187.472 328.213 185.888 326.688C184.334 325.133 183.116 323.329 182.236 321.276C181.356 319.223 180.916 316.993 180.916 314.588C180.916 312.183 181.342 309.953 182.192 307.9C183.072 305.847 184.29 304.057 185.844 302.532C187.428 301.007 189.276 299.819 191.388 298.968C193.5 298.117 195.803 297.692 198.296 297.692C200.79 297.692 203.092 298.117 205.204 298.968C207.316 299.819 209.15 301.007 210.704 302.532C212.288 304.057 213.506 305.847 214.356 307.9C215.236 309.953 215.676 312.183 215.676 314.588C215.676 316.993 215.236 319.223 214.356 321.276C213.476 323.329 212.244 325.133 210.66 326.688C209.106 328.213 207.272 329.401 205.16 330.252C203.048 331.103 200.76 331.528 198.296 331.528ZM198.296 325.368C199.792 325.368 201.171 325.104 202.432 324.576C203.723 324.048 204.852 323.315 205.82 322.376C206.788 321.408 207.536 320.264 208.064 318.944C208.592 317.624 208.856 316.172 208.856 314.588C208.856 313.004 208.592 311.567 208.064 310.276C207.536 308.956 206.788 307.812 205.82 306.844C204.852 305.876 203.723 305.143 202.432 304.644C201.171 304.116 199.792 303.852 198.296 303.852C196.8 303.852 195.407 304.116 194.116 304.644C192.855 305.143 191.74 305.876 190.772 306.844C189.804 307.812 189.056 308.956 188.528 310.276C188 311.567 187.736 313.004 187.736 314.588C187.736 316.172 188 317.624 188.528 318.944C189.056 320.264 189.804 321.408 190.772 322.376C191.74 323.315 192.855 324.048 194.116 324.576C195.407 325.104 196.8 325.368 198.296 325.368ZM220.513 331V298.22H233.053C235.312 298.22 237.306 298.616 239.037 299.408C240.797 300.2 242.176 301.373 243.173 302.928C244.17 304.483 244.669 306.404 244.669 308.692C244.669 310.921 244.156 312.828 243.129 314.412C242.102 315.967 240.724 317.14 238.993 317.932L246.473 331H238.817L230.721 316.524L235.121 319.12H227.333V331H220.513ZM227.333 313.18H233.097C234.065 313.18 234.901 312.989 235.605 312.608C236.309 312.227 236.852 311.699 237.233 311.024C237.644 310.349 237.849 309.572 237.849 308.692C237.849 307.783 237.644 306.991 237.233 306.316C236.852 305.641 236.309 305.113 235.605 304.732C234.901 304.351 234.065 304.16 233.097 304.16H227.333V313.18ZM247.441 331L258.529 298.22H267.593L278.681 331H271.245L269.045 324.312H257.033L254.833 331H247.441ZM258.925 318.372H267.153L262.137 302.884H263.985L258.925 318.372ZM161.904 384V351.22H184.344V357.16H168.724V365.476H182.144V371.416H168.724V384H161.904ZM187.728 384V351.22H200.268C202.527 351.22 204.521 351.616 206.252 352.408C208.012 353.2 209.391 354.373 210.388 355.928C211.385 357.483 211.884 359.404 211.884 361.692C211.884 363.921 211.371 365.828 210.344 367.412C209.317 368.967 207.939 370.14 206.208 370.932L213.688 384H206.032L197.936 369.524L202.336 372.12H194.548V384H187.728ZM194.548 366.18H200.312C201.28 366.18 202.116 365.989 202.82 365.608C203.524 365.227 204.067 364.699 204.448 364.024C204.859 363.349 205.064 362.572 205.064 361.692C205.064 360.783 204.859 359.991 204.448 359.316C204.067 358.641 203.524 358.113 202.82 357.732C202.116 357.351 201.28 357.16 200.312 357.16H194.548V366.18ZM217.076 384V351.22H223.896V384H217.076ZM217.252 347.084L219.804 339.164H228.296L223.72 347.084H217.252ZM227.288 384L238.376 351.22H247.44L258.528 384H251.092L248.892 377.312H236.88L234.68 384H227.288ZM238.772 371.372H247L241.984 355.884H243.832L238.772 371.372Z" fill="white"/>
<path d="M217.873 523.404C216.128 525.42 215.154 529.099 216.429 530.287C217.642 531.195 220.921 531.085 223.337 527.774C225.1 525.564 224.501 521.865 223.504 520.883C222.014 519.751 219.876 521.22 217.873 523.43V523.404ZM201.429 524.01C199.571 521.889 197.161 520.627 195.605 521.561C194.559 522.341 194.369 525.005 195.852 527.621C198.052 530.732 201.156 531.051 202.432 530.293C203.779 529.296 203.046 525.921 201.427 524.008L201.429 524.01ZM209.81 530.429C207.554 530.382 204.09 531.331 204.139 532.542C204.098 533.365 206.859 535.75 209.666 535.629C212.368 535.692 215.168 533.302 215.137 532.265C215.129 531.195 212.08 530.374 209.816 530.463L209.81 530.429ZM209.659 501.965C207.052 501.903 204.546 503.87 204.546 505.011C204.539 506.4 206.605 507.818 209.675 507.859C212.825 507.873 214.809 506.719 214.843 505.282C214.875 503.664 211.995 501.939 209.698 501.964L209.659 501.965ZM203.383 503.05C199.028 502.347 195.4 504.886 195.542 509.565C195.685 511.368 204.994 503.36 203.39 503.083L203.383 503.05ZM223.29 509.685C223.432 505.036 219.804 502.5 215.442 503.2C213.838 503.48 223.146 511.495 223.29 509.685ZM224.031 511.368C221.503 510.698 223.178 521.681 225.236 520.794C227.501 519.016 228.226 513.752 224.031 511.4V511.368ZM193.613 520.915C195.67 521.832 197.345 510.85 194.815 511.521C190.63 513.88 191.347 519.136 193.613 520.947V520.915ZM212.842 508.769C210.496 510.3 210.073 513.73 211.9 516.418C213.717 519.113 217.092 520.117 219.428 518.618C221.774 517.128 222.196 513.698 220.377 510.969C218.55 508.25 215.177 507.27 212.842 508.801V508.769ZM206.517 509.048C204.179 507.547 200.798 508.529 198.988 511.216C197.163 513.943 197.585 517.366 199.93 518.897C202.268 520.428 205.64 519.447 207.468 516.727C209.271 514.032 208.84 510.602 206.519 509.078L206.517 509.048ZM215.432 523.667C215.416 520.826 212.88 518.529 209.762 518.563C206.643 518.594 204.122 520.883 204.139 523.731V523.786C204.156 526.635 206.699 528.932 209.817 528.899C212.935 528.899 215.448 526.58 215.416 523.765V523.699L215.432 523.667ZM221.989 492.77C217.275 495.188 214.534 497.117 213.024 498.767C213.797 501.829 217.809 501.95 219.285 501.854C218.98 501.736 218.726 501.552 218.637 501.313C219.005 501.064 220.314 501.281 221.23 500.786C220.879 500.73 220.711 500.665 220.552 500.387C221.414 500.117 222.339 499.901 222.879 499.439C222.593 499.439 222.314 499.502 221.931 499.255C222.697 498.863 223.518 498.52 224.162 497.914C223.764 497.914 223.334 497.914 223.215 497.762C223.877 497.37 224.479 496.883 225.002 496.318C224.45 496.414 224.211 496.359 224.075 496.263C224.61 495.736 225.288 495.281 225.606 494.603C225.191 494.762 224.81 494.787 224.539 494.603C224.731 494.212 225.505 493.966 225.949 493.017C225.513 493.079 225.049 493.113 224.953 493.017C225.161 492.219 225.504 491.765 225.847 491.271C224.914 491.271 223.493 491.271 223.564 491.214L224.139 490.632C223.228 490.386 222.296 490.664 221.617 490.879C221.316 490.664 221.617 490.352 221.993 490.05C221.195 490.178 220.5 490.331 219.887 490.577C219.552 490.265 220.094 489.995 220.372 489.683C219.152 489.929 218.657 490.234 218.138 490.536C217.771 490.2 218.108 489.899 218.354 489.628C217.435 489.963 216.974 490.386 216.488 490.784C216.304 490.57 216.057 490.418 216.359 489.867C215.724 490.235 215.224 490.663 214.86 491.151C214.468 490.88 214.621 490.537 214.621 490.234C213.943 490.784 213.518 491.335 213.002 491.893C212.874 491.83 212.786 491.582 212.722 491.184C211.134 492.715 208.862 496.543 212.14 498.033C214.89 495.799 218.224 494.15 221.902 492.92L221.989 492.77ZM196.962 492.77C200.631 494 203.94 495.649 206.718 497.914C209.97 496.382 207.722 492.554 206.134 491.064C206.055 491.455 205.968 491.733 205.865 491.798C205.346 491.248 204.923 490.689 204.254 490.139C204.254 490.45 204.413 490.818 204.014 491.056C203.617 490.531 203.114 490.093 202.539 489.772C202.841 490.298 202.586 490.45 202.418 490.689C201.933 490.236 201.469 489.805 200.585 489.47C200.832 489.772 201.198 490.084 200.832 490.419C200.343 490.115 199.819 489.805 198.631 489.557C198.901 489.859 199.452 490.17 199.116 490.482C198.438 490.215 197.728 490.035 197.003 489.948C197.369 490.259 197.697 490.537 197.394 490.776C196.691 490.53 195.751 490.257 194.833 490.507L195.408 491.081C195.474 491.161 194.068 491.144 193.118 491.153C193.461 491.617 193.812 492.07 194.013 492.899C193.916 492.986 193.461 492.931 193.025 492.899C193.486 493.817 194.244 494.064 194.428 494.462C194.157 494.653 193.789 494.614 193.36 494.462C193.696 495.101 194.373 495.563 194.892 496.114C194.739 496.202 194.524 496.266 193.942 496.194C194.428 496.721 195.01 497.199 195.72 497.629C195.591 497.771 195.161 497.764 194.739 497.78C195.377 498.404 196.207 498.73 196.973 499.136C196.575 499.416 196.294 499.352 196.023 499.352C196.542 499.805 197.492 500.021 198.352 500.293C198.161 500.57 198.017 500.636 197.642 500.691C198.559 501.211 199.842 500.972 200.219 501.241C200.123 501.488 199.884 501.671 199.574 501.8C201.04 501.887 205.085 501.768 205.851 498.705C204.343 497.056 201.593 495.124 196.878 492.739L196.962 492.77ZM200.504 488.208C200.982 488.201 201.387 488.485 201.835 488.623C202.911 488.273 203.158 488.75 203.684 488.949C204.865 488.703 205.223 489.236 205.79 489.802L206.445 489.778C208.223 490.815 209.108 492.92 209.421 493.998C209.731 492.92 210.617 490.815 212.396 489.778L213.05 489.795C213.615 489.22 213.975 488.694 215.155 488.942C215.69 488.726 215.929 488.273 217.016 488.606C217.694 488.39 218.284 487.841 219.176 488.51C219.925 488.208 220.66 488.112 221.307 488.694C222.319 488.573 222.637 488.821 222.885 489.124C223.11 489.124 224.538 488.908 225.199 489.857C226.859 489.674 227.378 490.807 226.779 491.874C227.122 492.393 227.473 492.889 226.683 493.869C226.985 494.421 226.801 494.995 226.124 495.727C226.315 496.493 225.972 497.019 225.366 497.442C225.487 498.488 224.386 499.102 224.081 499.309C223.954 499.923 223.708 500.505 222.457 500.808C222.273 501.727 221.507 501.878 220.772 502.062C223.198 503.44 225.239 505.242 225.239 509.677L225.613 510.291C228.364 511.943 230.845 517.237 226.985 521.554C226.746 522.894 226.315 523.843 225.942 524.91C225.39 529.224 221.691 531.244 220.717 531.49C219.307 532.558 217.781 533.571 215.733 534.273C213.802 536.234 211.696 537 209.614 537H209.431C207.318 537 205.211 536.234 203.282 534.273C201.224 533.57 199.692 532.565 198.282 531.49C197.3 531.252 193.622 529.232 193.049 524.918C192.668 523.851 192.246 522.868 191.997 521.52C188.128 517.206 190.601 511.917 193.353 510.257L193.703 509.651C193.703 505.218 195.751 503.408 198.169 502.036C197.435 501.852 196.7 501.701 196.495 500.776C195.235 500.471 194.987 499.889 194.867 499.275C194.562 499.068 193.463 498.454 193.582 497.387C192.968 496.957 192.633 496.437 192.817 495.64C192.178 494.937 191.996 494.324 192.265 493.773C191.469 492.793 191.835 492.274 192.172 491.787C191.589 490.71 192.115 489.556 193.766 489.74C194.403 488.79 195.847 489.005 196.055 489.005C196.302 488.694 196.637 488.423 197.65 488.544C198.288 487.96 199.029 488.055 199.787 488.335C200.098 488.089 200.369 488 200.616 488L200.504 488.208Z" fill="white"/>
<ellipse cx="209.231" cy="26.1539" rx="209.231" ry="26.1539" fill="#C955FF"/>
<ellipse cx="208.846" cy="26.2308" rx="177.846" ry="22.2308" fill="url(#paint0_linear_174_96)" fill-opacity="0.55"/>
<defs>
<filter id="filter0_f_174_96" x="319.53" y="209.374" width="35.0004" height="35.0002" filterUnits="userSpaceOnUse" color-interpolation-filters="sRGB">
<feFlood flood-opacity="0" result="BackgroundImageFix"/>
<feBlend mode="normal" in="SourceGraphic" in2="BackgroundImageFix" result="shape"/>
<feGaussianBlur stdDeviation="5" result="effect1_foregroundBlur_174_96"/>
</filter>
<filter id="filter1_f_174_96" x="61.3615" y="237.441" width="35" height="35" filterUnits="userSpaceOnUse" color-interpolation-filters="sRGB">
<feFlood flood-opacity="0" result="BackgroundImageFix"/>
<feBlend mode="normal" in="SourceGraphic" in2="BackgroundImageFix" result="shape"/>
<feGaussianBlur stdDeviation="5" result="effect1_foregroundBlur_174_96"/>
</filter>
<linearGradient id="paint0_linear_174_96" x1="31" y1="26.2308" x2="259.061" y2="178.708" gradientUnits="userSpaceOnUse">
<stop offset="0.282342" stop-color="#9100D5"/>
<stop offset="1" stop-color="#3A0055"/>
</linearGradient>
</defs>
</svg>
