<svg width="276" height="432" viewBox="0 0 276 432" fill="none" xmlns="http://www.w3.org/2000/svg">
<path d="M0 17.1483L276 17.1483V401.149C276 417.717 262.569 431.149 246 431.149H30C13.4315 431.149 0 417.717 0 401.149L0 17.1483Z" fill="#FF55CC" fill-opacity="0.55"/>
<path d="M20.4457 197.867H255.248V9.89232H20.4457L20.4457 197.867Z" fill="#FF68D2" fill-opacity="0.25"/>
<path d="M152.169 211.765C130.464 208.282 100.629 186.947 100.629 186.947C100.629 186.947 70.7938 165.612 49.0894 162.128C38.0938 160.363 28.84 163.124 20.4457 168.118L20.4457 341.653H255.248V162.128C211.839 155.16 195.578 218.733 152.169 211.765Z" fill="#FF55CC"/>
<path d="M71.9132 192.638C50.2391 189.154 20.4457 167.819 20.4457 167.819L20.4457 375.29H255.248V184.867C239.814 177.485 226.316 167.819 226.316 167.819C226.316 167.819 196.522 146.485 174.848 143.001C131.5 136.033 115.261 199.606 71.9132 192.638Z" fill="#FF80D9"/>
<path d="M20.4457 375.29H255.248C255.248 391.681 241.96 404.97 225.568 404.97H50.1258C33.7339 404.97 20.4457 391.681 20.4457 375.29Z" fill="#FF80D9"/>
<path d="M101.484 212V194.12H113.724V197.36H105.204V201.896H112.524V205.136H105.204V212H101.484ZM115.57 212V194.12H122.41C123.642 194.12 124.73 194.336 125.674 194.768C126.634 195.2 127.386 195.84 127.93 196.688C128.474 197.536 128.746 198.584 128.746 199.832C128.746 201.048 128.466 202.088 127.906 202.952C127.346 203.8 126.594 204.44 125.65 204.872L129.73 212H125.554L121.138 204.104L123.538 205.52H119.29V212H115.57ZM119.29 202.28H122.434C122.962 202.28 123.418 202.176 123.802 201.968C124.186 201.76 124.482 201.472 124.69 201.104C124.914 200.736 125.026 200.312 125.026 199.832C125.026 199.336 124.914 198.904 124.69 198.536C124.482 198.168 124.186 197.88 123.802 197.672C123.418 197.464 122.962 197.36 122.434 197.36H119.29V202.28ZM131.578 212V194.12H143.602V197.36H135.298V201.416H143.122V204.656H135.298V208.76H143.602V212H131.578ZM152.215 212.288C151.095 212.288 150.039 212.088 149.047 211.688C148.071 211.272 147.223 210.688 146.503 209.936C145.799 209.184 145.271 208.296 144.919 207.272L147.967 205.904C148.415 206.88 149.031 207.648 149.815 208.208C150.615 208.768 151.495 209.048 152.455 209.048C152.967 209.048 153.407 208.968 153.775 208.808C154.143 208.648 154.431 208.432 154.639 208.16C154.847 207.872 154.951 207.536 154.951 207.152C154.951 206.736 154.823 206.384 154.567 206.096C154.311 205.792 153.911 205.552 153.367 205.376L149.863 204.224C148.439 203.76 147.367 203.104 146.647 202.256C145.927 201.392 145.567 200.36 145.567 199.16C145.567 198.104 145.823 197.176 146.335 196.376C146.863 195.576 147.591 194.952 148.519 194.504C149.463 194.056 150.543 193.832 151.759 193.832C152.831 193.832 153.823 194.016 154.735 194.384C155.647 194.752 156.431 195.272 157.087 195.944C157.759 196.616 158.263 197.424 158.599 198.368L155.575 199.736C155.239 198.904 154.735 198.256 154.063 197.792C153.391 197.312 152.623 197.072 151.759 197.072C151.263 197.072 150.823 197.152 150.439 197.312C150.055 197.472 149.759 197.704 149.551 198.008C149.343 198.296 149.239 198.632 149.239 199.016C149.239 199.432 149.375 199.8 149.647 200.12C149.919 200.424 150.327 200.664 150.871 200.84L154.303 201.944C155.743 202.408 156.815 203.056 157.519 203.888C158.239 204.72 158.599 205.736 158.599 206.936C158.599 207.976 158.327 208.904 157.783 209.72C157.239 210.52 156.487 211.152 155.527 211.616C154.583 212.064 153.479 212.288 152.215 212.288ZM159.695 212L165.743 194.12H170.687L176.735 212H172.679L171.479 208.352H164.927L163.727 212H159.695ZM165.959 205.112H170.447L167.711 196.664H168.719L165.959 205.112ZM86.2732 241.288C84.9932 241.288 83.8012 241.056 82.6972 240.592C81.6092 240.128 80.6572 239.48 79.8412 238.648C79.0252 237.816 78.3852 236.84 77.9212 235.72C77.4732 234.6 77.2492 233.376 77.2492 232.048C77.2492 230.72 77.4732 229.496 77.9212 228.376C78.3692 227.24 79.0012 226.264 79.8172 225.448C80.6332 224.616 81.5852 223.976 82.6732 223.528C83.7772 223.064 84.9772 222.832 86.2732 222.832C87.5692 222.832 88.7292 223.048 89.7532 223.48C90.7932 223.912 91.6732 224.488 92.3932 225.208C93.1132 225.928 93.6252 226.728 93.9292 227.608L90.6412 229.192C90.3372 228.328 89.8012 227.616 89.0332 227.056C88.2812 226.48 87.3612 226.192 86.2732 226.192C85.2172 226.192 84.2892 226.44 83.4892 226.936C82.6892 227.432 82.0652 228.12 81.6172 229C81.1852 229.864 80.9692 230.88 80.9692 232.048C80.9692 233.216 81.1852 234.24 81.6172 235.12C82.0652 236 82.6892 236.688 83.4892 237.184C84.2892 237.68 85.2172 237.928 86.2732 237.928C87.3612 237.928 88.2812 237.648 89.0332 237.088C89.8012 236.512 90.3372 235.792 90.6412 234.928L93.9292 236.512C93.6252 237.392 93.1132 238.192 92.3932 238.912C91.6732 239.632 90.7932 240.208 89.7532 240.64C88.7292 241.072 87.5692 241.288 86.2732 241.288ZM96.3163 241V223.12H103.156C104.388 223.12 105.476 223.336 106.42 223.768C107.38 224.2 108.132 224.84 108.676 225.688C109.22 226.536 109.492 227.584 109.492 228.832C109.492 230.048 109.212 231.088 108.652 231.952C108.092 232.8 107.34 233.44 106.396 233.872L110.476 241H106.3L101.884 233.104L104.284 234.52H100.036V241H96.3163ZM100.036 231.28H103.18C103.708 231.28 104.164 231.176 104.548 230.968C104.932 230.76 105.228 230.472 105.436 230.104C105.66 229.736 105.772 229.312 105.772 228.832C105.772 228.336 105.66 227.904 105.436 227.536C105.228 227.168 104.932 226.88 104.548 226.672C104.164 226.464 103.708 226.36 103.18 226.36H100.036V231.28ZM112.324 241V223.12H124.348V226.36H116.044V230.416H123.868V233.656H116.044V237.76H124.348V241H112.324ZM126.457 241V223.12H130.057L136.753 232H135.073L141.577 223.12H145.177V241H141.457V227.224L142.945 227.56L136.057 236.44H135.577L128.929 227.56L130.177 227.224V241H126.457ZM157.3 241.288C155.956 241.288 154.708 241.056 153.556 240.592C152.404 240.128 151.396 239.48 150.532 238.648C149.684 237.8 149.02 236.816 148.54 235.696C148.06 234.576 147.82 233.36 147.82 232.048C147.82 230.736 148.052 229.52 148.516 228.4C148.996 227.28 149.66 226.304 150.508 225.472C151.372 224.64 152.38 223.992 153.532 223.528C154.684 223.064 155.94 222.832 157.3 222.832C158.66 222.832 159.916 223.064 161.068 223.528C162.22 223.992 163.22 224.64 164.068 225.472C164.932 226.304 165.596 227.28 166.06 228.4C166.54 229.52 166.78 230.736 166.78 232.048C166.78 233.36 166.54 234.576 166.06 235.696C165.58 236.816 164.908 237.8 164.044 238.648C163.196 239.48 162.196 240.128 161.044 240.592C159.892 241.056 158.644 241.288 157.3 241.288ZM157.3 237.928C158.116 237.928 158.868 237.784 159.556 237.496C160.26 237.208 160.876 236.808 161.404 236.296C161.932 235.768 162.34 235.144 162.628 234.424C162.916 233.704 163.06 232.912 163.06 232.048C163.06 231.184 162.916 230.4 162.628 229.696C162.34 228.976 161.932 228.352 161.404 227.824C160.876 227.296 160.26 226.896 159.556 226.624C158.868 226.336 158.116 226.192 157.3 226.192C156.484 226.192 155.724 226.336 155.02 226.624C154.332 226.896 153.724 227.296 153.196 227.824C152.668 228.352 152.26 228.976 151.972 229.696C151.684 230.4 151.54 231.184 151.54 232.048C151.54 232.912 151.684 233.704 151.972 234.424C152.26 235.144 152.668 235.768 153.196 236.296C153.724 236.808 154.332 237.208 155.02 237.496C155.724 237.784 156.484 237.928 157.3 237.928ZM175.922 241.288C174.802 241.288 173.746 241.088 172.754 240.688C171.778 240.272 170.93 239.688 170.21 238.936C169.506 238.184 168.978 237.296 168.626 236.272L171.674 234.904C172.122 235.88 172.738 236.648 173.522 237.208C174.322 237.768 175.202 238.048 176.162 238.048C176.674 238.048 177.114 237.968 177.482 237.808C177.85 237.648 178.138 237.432 178.346 237.16C178.554 236.872 178.658 236.536 178.658 236.152C178.658 235.736 178.53 235.384 178.274 235.096C178.018 234.792 177.618 234.552 177.074 234.376L173.57 233.224C172.146 232.76 171.074 232.104 170.354 231.256C169.634 230.392 169.274 229.36 169.274 228.16C169.274 227.104 169.53 226.176 170.042 225.376C170.57 224.576 171.298 223.952 172.226 223.504C173.17 223.056 174.25 222.832 175.466 222.832C176.538 222.832 177.53 223.016 178.442 223.384C179.354 223.752 180.138 224.272 180.794 224.944C181.466 225.616 181.97 226.424 182.306 227.368L179.282 228.736C178.946 227.904 178.442 227.256 177.77 226.792C177.098 226.312 176.33 226.072 175.466 226.072C174.97 226.072 174.53 226.152 174.146 226.312C173.762 226.472 173.466 226.704 173.258 227.008C173.05 227.296 172.946 227.632 172.946 228.016C172.946 228.432 173.082 228.8 173.354 229.12C173.626 229.424 174.034 229.664 174.578 229.84L178.01 230.944C179.45 231.408 180.522 232.056 181.226 232.888C181.946 233.72 182.306 234.736 182.306 235.936C182.306 236.976 182.034 237.904 181.49 238.72C180.946 239.52 180.194 240.152 179.234 240.616C178.29 241.064 177.186 241.288 175.922 241.288ZM183.403 241L189.451 223.12H194.395L200.443 241H196.387L195.187 237.352H188.635L187.435 241H183.403ZM189.667 234.112H194.155L191.419 225.664H192.427L189.667 234.112Z" fill="white"/>
<path d="M145.934 330.166L151.487 324.612M145.934 330.166V322.232M145.934 330.166H153.867M132.447 334.132H132.462M138.793 332.546H138.809M130.86 340.479H130.876M137.207 338.893H137.223M143.554 337.306H143.57M129.273 346.826H129.289M135.62 345.24H135.636M141.967 343.653H141.983M122.291 346.192C122.048 347.241 122.076 348.336 122.373 349.372C122.669 350.408 123.224 351.351 123.986 352.113C124.748 352.875 125.692 353.43 126.728 353.727C127.764 354.023 128.858 354.051 129.908 353.808L144.188 350.476C146.003 350.092 147.675 349.213 149.02 347.936C150.365 346.66 151.329 345.035 151.806 343.243C152.283 341.451 152.253 339.561 151.721 337.785C151.188 336.009 150.174 334.415 148.79 333.18L142.76 327.309C141.461 326.02 139.842 325.1 138.069 324.643C136.297 324.186 134.434 324.209 132.674 324.71C130.913 325.21 129.317 326.171 128.05 327.492C126.784 328.813 125.891 330.448 125.465 332.228L122.291 346.192Z" stroke="white" stroke-width="2.83" stroke-linecap="round" stroke-linejoin="round"/>
<ellipse cx="138" cy="17.25" rx="138" ry="17.25" fill="#FF80D9"/>
<ellipse cx="137.745" cy="17.3014" rx="117.3" ry="14.6625" fill="url(#paint0_linear_129_235)" fill-opacity="0.55"/>
<defs>
<linearGradient id="paint0_linear_129_235" x1="20.4454" y1="17.3014" x2="170.865" y2="117.869" gradientUnits="userSpaceOnUse">
<stop offset="0.282342" stop-color="#FF55CC"/>
<stop offset="1" stop-color="#55003B"/>
</linearGradient>
</defs>
</svg>
