<svg width="419" height="654" viewBox="0 0 419 654" fill="none" xmlns="http://www.w3.org/2000/svg">
<path d="M0 26H418.462V623.693C418.462 640.261 405.03 653.693 388.462 653.693H30C13.4314 653.693 0 640.261 0 623.693V26Z" fill="#FF6200"/>
<path d="M31 300H387V15H31V300Z" fill="#D55200"/>
<path d="M230.714 321.069C197.807 315.787 152.571 283.44 152.571 283.44C152.571 283.44 107.336 251.093 74.4286 245.811C57.7574 243.135 43.7272 247.321 31 254.893V518H387V245.811C321.185 235.246 296.53 331.633 230.714 321.069Z" fill="#AA4100"/>
<path d="M109.033 292.069C76.1718 286.787 31 254.44 31 254.44V569H387V280.287C363.598 269.095 343.133 254.44 343.133 254.44C343.133 254.44 297.961 222.093 265.1 216.811C199.377 206.246 174.756 302.633 109.033 292.069Z" fill="#FF7C2B"/>
<path d="M31 569H387V584C387 600.569 373.569 614 357 614H61C44.4315 614 31 600.569 31 584V569Z" fill="#FF7C2B"/>
<path d="M84.6963 331.415V326.29L98.5953 306.405H85.5163V300.87H106.631V305.995L92.7733 325.88H107.041V331.415H84.6963ZM107.959 331.415L118.291 300.87H126.737L137.069 331.415H130.14L128.09 325.183H116.897L114.847 331.415H107.959ZM118.66 319.648H126.327L121.653 305.216H123.375L118.66 319.648ZM140.243 331.415V300.87H145.122L161.522 322.477L158.898 323.092V300.87H165.253V331.415H160.333L144.22 309.644L146.598 309.029V331.415H140.243ZM168.418 331.415L178.75 300.87H187.196L197.528 331.415H190.599L188.549 325.183H177.356L175.306 331.415H168.418ZM179.119 319.648H186.786L182.112 305.216H183.834L179.119 319.648ZM200.702 331.415V300.87H207.057V314.072H218.947V300.87H225.302V331.415H218.947V319.607H207.057V331.415H200.702ZM246.025 331.907C243.729 331.907 241.597 331.51 239.629 330.718C237.661 329.925 235.939 328.818 234.463 327.397C233.014 325.948 231.88 324.267 231.06 322.354C230.24 320.44 229.83 318.363 229.83 316.122C229.83 313.88 230.226 311.803 231.019 309.89C231.839 307.976 232.973 306.309 234.422 304.888C235.898 303.466 237.62 302.359 239.588 301.567C241.556 300.774 243.701 300.378 246.025 300.378C248.348 300.378 250.494 300.774 252.462 301.567C254.43 302.359 256.138 303.466 257.587 304.888C259.063 306.309 260.197 307.976 260.99 309.89C261.81 311.803 262.22 313.88 262.22 316.122C262.22 318.363 261.81 320.44 260.99 322.354C260.17 324.267 259.022 325.948 257.546 327.397C256.097 328.818 254.389 329.925 252.421 330.718C250.453 331.51 248.321 331.907 246.025 331.907ZM246.025 326.167C247.419 326.167 248.703 325.921 249.879 325.429C251.081 324.937 252.134 324.253 253.036 323.379C253.938 322.477 254.635 321.411 255.127 320.181C255.619 318.951 255.865 317.598 255.865 316.122C255.865 314.646 255.619 313.306 255.127 312.104C254.635 310.874 253.938 309.808 253.036 308.906C252.134 308.004 251.081 307.32 249.879 306.856C248.703 306.364 247.419 306.118 246.025 306.118C244.631 306.118 243.332 306.364 242.13 306.856C240.954 307.32 239.916 308.004 239.014 308.906C238.112 309.808 237.415 310.874 236.923 312.104C236.431 313.306 236.185 314.646 236.185 316.122C236.185 317.598 236.431 318.951 236.923 320.181C237.415 321.411 238.112 322.477 239.014 323.379C239.916 324.253 240.954 324.937 242.13 325.429C243.332 325.921 244.631 326.167 246.025 326.167ZM266.727 331.415V300.87H278.412C280.516 300.87 282.375 301.239 283.988 301.977C285.628 302.715 286.912 303.808 287.842 305.257C288.771 306.705 289.236 308.496 289.236 310.628C289.236 312.705 288.757 314.482 287.801 315.958C286.844 317.406 285.559 318.5 283.947 319.238L290.917 331.415H283.783L276.239 317.926L280.339 320.345H273.082V331.415H266.727ZM273.082 314.81H278.453C279.355 314.81 280.134 314.632 280.79 314.277C281.446 313.921 281.951 313.429 282.307 312.801C282.689 312.172 282.881 311.448 282.881 310.628C282.881 309.78 282.689 309.042 282.307 308.414C281.951 307.785 281.446 307.293 280.79 306.938C280.134 306.582 279.355 306.405 278.453 306.405H273.082V314.81ZM294.073 331.415V300.87H300.428V331.415H294.073ZM303.59 331.415L313.922 300.87H322.368L332.7 331.415H325.771L323.721 325.183H312.528L310.478 331.415H303.59ZM314.291 319.648H321.958L317.284 305.216H319.006L314.291 319.648ZM116.16 381.415V350.87H121.039L137.439 372.477L134.815 373.092V350.87H141.17V381.415H136.25L120.137 359.644L122.515 359.029V381.415H116.16ZM144.335 381.415L154.667 350.87H163.113L173.445 381.415H166.516L164.466 375.183H153.273L151.223 381.415H144.335ZM155.036 369.648H162.703L158.029 355.216H159.751L155.036 369.648ZM180.071 381.415V356.405H172.322V350.87H194.052V356.405H186.426V381.415H180.071ZM209.335 381.907C206.93 381.907 204.784 381.401 202.898 380.39C201.012 379.378 199.522 377.998 198.429 376.249C197.363 374.472 196.83 372.463 196.83 370.222V350.87H203.185V369.812C203.185 371.014 203.445 372.108 203.964 373.092C204.511 374.048 205.249 374.8 206.178 375.347C207.107 375.893 208.16 376.167 209.335 376.167C210.538 376.167 211.59 375.893 212.492 375.347C213.421 374.8 214.146 374.048 214.665 373.092C215.212 372.108 215.485 371.014 215.485 369.812V350.87H221.84V370.222C221.84 372.463 221.293 374.472 220.2 376.249C219.134 377.998 217.658 379.378 215.772 380.39C213.886 381.401 211.74 381.907 209.335 381.907ZM226.868 381.415V350.87H238.553C240.658 350.87 242.516 351.239 244.129 351.977C245.769 352.715 247.054 353.808 247.983 355.257C248.912 356.705 249.377 358.496 249.377 360.628C249.377 362.705 248.899 364.482 247.942 365.958C246.985 367.406 245.701 368.5 244.088 369.238L251.058 381.415H243.924L236.38 367.926L240.48 370.345H233.223V381.415H226.868ZM233.223 364.81H238.594C239.496 364.81 240.275 364.632 240.931 364.277C241.587 363.921 242.093 363.429 242.448 362.801C242.831 362.172 243.022 361.448 243.022 360.628C243.022 359.78 242.831 359.042 242.448 358.414C242.093 357.785 241.587 357.293 240.931 356.938C240.275 356.582 239.496 356.405 238.594 356.405H233.223V364.81ZM251.96 381.415L262.292 350.87H270.738L281.07 381.415H274.141L272.091 375.183H260.898L258.848 381.415H251.96ZM262.661 369.648H270.328L265.654 355.216H267.376L262.661 369.648ZM284.244 381.415V350.87H290.599V375.88H303.514V381.415H284.244Z" fill="white"/>
<path d="M231.375 488.5H227.219L231.486 484.232C231.731 483.988 231.924 483.698 232.057 483.379C232.189 483.06 232.257 482.718 232.257 482.373C232.257 482.028 232.189 481.686 232.057 481.367C231.924 481.048 231.731 480.758 231.486 480.514C231.242 480.269 230.952 480.076 230.633 479.943C230.314 479.811 229.972 479.743 229.627 479.743C229.282 479.743 228.94 479.811 228.621 479.943C228.302 480.076 228.012 480.269 227.768 480.514L223.5 484.781V480.625C223.5 479.929 223.223 479.261 222.731 478.769C222.238 478.277 221.571 478 220.875 478C220.178 478 219.511 478.277 219.018 478.769C218.526 479.261 218.249 479.929 218.249 480.625V486.313C215.498 485.072 212.433 484.698 209.464 485.24C206.494 485.782 203.76 487.214 201.624 489.347C192.753 498.056 186.131 518.47 185.388 520.826C185.087 521.492 184.958 522.223 185.012 522.952C185.067 523.681 185.303 524.385 185.699 524.999C186.096 525.613 186.639 526.118 187.281 526.468C187.923 526.818 188.642 527.001 189.373 527.002C189.995 527.001 190.609 526.868 191.176 526.612C192.847 526.083 203.599 522.6 212.813 517.464L212.931 517.398C216.672 515.305 220.15 512.938 222.653 510.398C224.79 508.26 226.226 505.522 226.768 502.548C227.31 499.574 226.933 496.505 225.687 493.751H231.375C232.071 493.751 232.739 493.474 233.231 492.982C233.723 492.489 234 491.822 234 491.125C234 490.429 233.723 489.762 233.231 489.269C232.739 488.777 232.071 488.5 231.375 488.5ZM218.93 506.684L218.91 506.703C217.136 508.515 214.73 510.247 212.056 511.848L206.979 506.771C206.486 506.278 205.817 506.001 205.12 506.001C204.422 506.001 203.753 506.278 203.26 506.771C202.767 507.264 202.49 507.933 202.49 508.63C202.49 509.328 202.767 509.997 203.26 510.49L207.246 514.476C200.62 517.794 193.654 520.255 190.782 521.218C192.263 516.795 197.299 502.667 203.545 495.024L210.26 501.74C210.754 502.233 211.422 502.51 212.12 502.51C212.817 502.51 213.486 502.233 213.979 501.74C214.472 501.246 214.749 500.578 214.749 499.88C214.749 499.183 214.472 498.514 213.979 498.021L207.43 491.471C209.458 490.336 211.83 489.973 214.105 490.45C216.381 490.927 218.407 492.211 219.809 494.066C221.211 495.921 221.894 498.22 221.733 500.539C221.571 502.859 220.575 505.041 218.93 506.684Z" fill="white"/>
<ellipse cx="209.231" cy="26.1539" rx="209.231" ry="26.1539" fill="#FF7C2B"/>
<ellipse cx="208.846" cy="26.2308" rx="177.846" ry="22.2308" fill="url(#paint0_linear_174_174)" fill-opacity="0.55"/>
<defs>
<linearGradient id="paint0_linear_174_174" x1="31" y1="26.2308" x2="259.061" y2="178.708" gradientUnits="userSpaceOnUse">
<stop offset="0.282342" stop-color="#FF6E14"/>
<stop offset="1" stop-color="#A14A14"/>
</linearGradient>
</defs>
</svg>
