<svg width="341" height="530" viewBox="0 0 341 530" fill="none" xmlns="http://www.w3.org/2000/svg">
<path d="M0.892151 21.0794H340.173V500C340.173 516.569 326.741 530 310.173 530H30.8922C14.3236 530 0.892151 516.569 0.892151 500V21.0794Z" fill="#AEAEAE"/>
<path d="M26.0261 243.233H314.664V12.1606H26.0261V243.233Z" fill="#919191"/>
<g opacity="0.56">
<rect width="64.8622" height="64.8622" rx="30" transform="matrix(-0.642788 -0.766044 -0.766044 0.642788 317.671 206.166)" fill="#99ECFF"/>
<rect width="54.3222" height="54.3222" rx="27.1611" transform="matrix(-0.642788 -0.766044 -0.766044 0.642788 310.593 201.519)" fill="#76E6FF"/>
<g filter="url(#filter0_f_162_969)">
<rect width="12.1617" height="12.1617" rx="6.08085" transform="matrix(-0.642788 -0.766044 -0.766044 0.642788 282.716 184.693)" fill="white"/>
</g>
</g>
<path d="M187.951 260.317C161.27 256.034 124.594 229.808 124.594 229.808C124.594 229.808 87.918 203.582 61.2372 199.299C47.7205 197.129 36.3451 200.524 26.0261 206.663V419.984H314.664V199.299C261.302 190.734 241.312 268.882 187.951 260.317Z" fill="#747474"/>
<g opacity="0.56">
<rect x="19.5412" y="225.049" width="64.8622" height="64.8622" rx="30" transform="rotate(-45 19.5412 225.049)" fill="#99ECFF"/>
<rect x="26.9923" y="221.036" width="54.3222" height="54.3222" rx="27.1611" transform="rotate(-45 26.9923 221.036)" fill="#76E6FF"/>
<g filter="url(#filter1_f_162_969)">
<rect x="56.2311" y="206.7" width="12.1617" height="12.1617" rx="6.08085" transform="rotate(-45 56.2311 206.7)" fill="white"/>
</g>
</g>
<path d="M89.2939 239.803C62.6505 235.52 26.0261 209.294 26.0261 209.294V464.332H314.664V230.25C295.69 221.176 279.097 209.294 279.097 209.294C279.097 209.294 242.473 183.067 215.83 178.785C162.543 170.219 142.581 248.368 89.2939 239.803Z" fill="#D7D7D7"/>
<path d="M26 374H315V468C315 484.569 301.569 498 285 498H56C39.4315 498 26 484.569 26 468V374Z" fill="#D7D7D7"/>
<path d="M71.6735 268.828L80.4935 242.753H87.7035L96.5235 268.828H90.6085L88.8585 263.508H79.3035L77.5535 268.828H71.6735ZM80.8085 258.783H87.3535L83.3635 246.463H84.8335L80.8085 258.783ZM99.2332 268.828V242.753H104.658V264.103H115.683V268.828H99.2332ZM118.374 268.828V242.753H123.624L133.389 255.703H130.939L140.424 242.753H145.674V268.828H140.249V248.738L142.419 249.228L132.374 262.178H131.674L121.979 249.228L123.799 248.738V268.828H118.374ZM150.298 268.828V242.753H167.833V247.478H155.723V253.393H167.133V258.118H155.723V264.103H167.833V268.828H150.298ZM170.908 268.828V242.753H175.073L189.073 261.198L186.833 261.723V242.753H192.258V268.828H188.058L174.303 250.243L176.333 249.718V268.828H170.908ZM196.885 268.828V242.753H205.39C208.213 242.753 210.663 243.313 212.74 244.433C214.816 245.553 216.426 247.093 217.57 249.053C218.713 251.013 219.285 253.253 219.285 255.773C219.285 258.293 218.713 260.544 217.57 262.528C216.426 264.488 214.816 266.028 212.74 267.148C210.663 268.268 208.213 268.828 205.39 268.828H196.885ZM202.31 264.103H205.53C207.233 264.103 208.703 263.764 209.94 263.088C211.176 262.388 212.133 261.419 212.81 260.183C213.51 258.923 213.86 257.453 213.86 255.773C213.86 254.069 213.51 252.599 212.81 251.363C212.133 250.126 211.176 249.169 209.94 248.493C208.703 247.816 207.233 247.478 205.53 247.478H202.31V264.103ZM222.759 268.828V242.753H232.734C234.53 242.753 236.117 243.068 237.494 243.698C238.894 244.328 239.99 245.261 240.784 246.498C241.577 247.734 241.974 249.263 241.974 251.083C241.974 252.856 241.565 254.373 240.749 255.633C239.932 256.869 238.835 257.803 237.459 258.433L243.409 268.828H237.319L230.879 257.313L234.379 259.378H228.184V268.828H222.759ZM228.184 254.653H232.769C233.539 254.653 234.204 254.501 234.764 254.198C235.324 253.894 235.755 253.474 236.059 252.938C236.385 252.401 236.549 251.783 236.549 251.083C236.549 250.359 236.385 249.729 236.059 249.193C235.755 248.656 235.324 248.236 234.764 247.933C234.204 247.629 233.539 247.478 232.769 247.478H228.184V254.653ZM244.178 268.828L252.998 242.753H260.208L269.028 268.828H263.113L261.363 263.508H251.808L250.058 268.828H244.178ZM253.313 258.783H259.858L255.868 246.463H257.338L253.313 258.783ZM132.883 310.828V284.753H150.733V289.478H138.308V296.093H148.983V300.818H138.308V310.828H132.883ZM153.425 310.828V284.753H163.4C165.197 284.753 166.783 285.068 168.16 285.698C169.56 286.328 170.657 287.261 171.45 288.498C172.243 289.734 172.64 291.263 172.64 293.083C172.64 294.856 172.232 296.373 171.415 297.633C170.598 298.869 169.502 299.803 168.125 300.433L174.075 310.828H167.985L161.545 299.313L165.045 301.378H158.85V310.828H153.425ZM158.85 296.653H163.435C164.205 296.653 164.87 296.501 165.43 296.198C165.99 295.894 166.422 295.474 166.725 294.938C167.052 294.401 167.215 293.783 167.215 293.083C167.215 292.359 167.052 291.729 166.725 291.193C166.422 290.656 165.99 290.236 165.43 289.933C164.87 289.629 164.205 289.478 163.435 289.478H158.85V296.653ZM176.77 310.828V284.753H182.195V310.828H176.77ZM176.91 281.463L178.94 275.163H185.695L182.055 281.463H176.91ZM184.894 310.828L193.714 284.753H200.924L209.744 310.828H203.829L202.079 305.508H192.524L190.774 310.828H184.894ZM194.029 300.783H200.574L196.584 288.463H198.054L194.029 300.783Z" fill="white"/>
<path d="M185.474 396.473C185.048 396.473 184.596 396.502 184.118 396.554C183.18 398.004 182.336 399.389 182.114 400.727L180.596 400.476C180.809 399.191 181.38 398.018 182.054 396.906C181.977 396.922 181.909 396.937 181.832 396.955C178.745 397.686 175.069 399.192 171.385 401.173C170.925 401.419 170.464 401.674 170.012 401.935C169.944 402.359 169.858 402.872 169.748 403.435C169.475 404.825 169.082 406.437 168.315 407.537C167.334 408.918 165.535 410.129 163.948 411.085C162.362 412.04 160.989 412.696 160.989 412.696L160.324 411.315C160.324 411.315 161.637 410.684 163.155 409.771C164.673 408.85 166.379 407.605 167.053 406.65C167.53 405.976 167.982 404.449 168.247 403.136C168.255 403.076 168.272 403.017 168.281 402.957C162.029 406.786 156.231 411.767 153.668 416.159C152.38 418.376 151.669 421.157 151.697 423.903C152.871 421.668 154.172 419.4 156.329 417.268L157.409 418.359C154.813 420.926 153.544 423.766 151.992 426.666C152.495 429.071 153.648 431.254 155.539 432.789C155.884 433.071 156.263 433.335 156.673 433.574C156.822 433.045 157.037 432.329 157.308 431.553C157.859 429.975 158.575 428.158 159.633 427.033C160.912 425.677 162.686 425.208 164.281 424.73C165.876 424.261 167.283 423.792 168.136 422.803C168.929 421.864 169.662 419.724 170.097 417.865C170.532 416.014 170.728 414.436 170.728 414.436L172.246 414.624C172.246 414.624 172.05 416.27 171.59 418.214C171.138 420.159 170.49 422.402 169.296 423.792C168.085 425.216 166.319 425.728 164.716 426.205C163.112 426.683 161.654 427.135 160.759 428.09C160.059 428.832 159.275 430.555 158.754 432.056C158.439 432.968 158.209 433.762 158.072 434.265C159.275 434.768 160.639 435.118 162.063 435.314C162.831 434.086 163.479 433.42 164.631 428.755L166.114 429.131C165.125 433.113 164.426 434.435 163.778 435.467C166.865 435.604 170.038 435.015 172.306 433.787C178.728 430.273 184.092 421.839 187.12 413.848C187.7 412.321 188.186 410.812 188.595 409.353C187.069 410.658 185.798 412.082 185.09 413.882L183.657 413.319C184.766 410.522 186.915 408.594 189.201 406.88C189.499 405.464 189.704 404.134 189.798 402.931C189.841 402.35 189.866 401.798 189.858 401.282C189.303 401.594 188.672 401.957 188.007 402.366C185.926 403.648 183.581 405.379 182.651 406.795C182.216 407.451 182.139 408.407 182.08 409.515C182.02 410.633 181.994 411.895 181.261 413.012C180.596 414.035 179.564 414.564 178.66 415.033C177.756 415.502 176.971 415.929 176.528 416.517C175.649 417.677 174.754 420.014 174.148 422.009C173.534 423.997 173.176 425.66 173.176 425.66L171.675 425.336C171.675 425.336 172.05 423.613 172.681 421.557C173.304 419.502 174.157 417.114 175.3 415.596C176.025 414.632 177.056 414.138 177.952 413.677C178.839 413.208 179.581 412.782 179.982 412.176C180.408 411.511 180.493 410.547 180.545 409.439C180.604 408.33 180.638 407.059 181.372 405.95V405.942C182.608 404.083 185.048 402.387 187.205 401.059C188.152 400.476 189.03 399.981 189.738 399.6C189.713 399.43 189.679 399.268 189.644 399.113C189.423 398.126 189.047 397.506 188.621 397.21C187.998 396.773 187.077 396.527 185.918 396.48C185.773 396.472 185.628 396.472 185.474 396.472V396.473ZM175.837 401.496L177.321 401.88C177.321 401.88 176.971 403.23 176.408 404.833C175.837 406.445 175.095 408.296 174.08 409.473C172.315 411.545 169.833 412.62 167.471 413.652C165.108 414.684 162.865 415.69 161.356 417.387V417.396C160.179 418.726 158.908 421.43 158.004 423.749C157.089 426.077 156.505 428.031 156.505 428.031L155.034 427.587C155.034 427.587 155.635 425.583 156.571 423.195C157.509 420.807 158.737 418.044 160.213 416.381C162.004 414.334 164.494 413.285 166.856 412.244C169.219 411.212 171.445 410.206 172.92 408.483C173.62 407.656 174.413 405.865 174.958 404.321C175.504 402.786 175.837 401.496 175.837 401.496ZM165.799 417.447L167.317 417.668C167.078 419.323 166.311 420.551 165.338 421.438C164.366 422.316 163.206 422.896 162.106 423.442L161.424 422.078C162.515 421.523 163.539 420.995 164.306 420.295C165.074 419.604 165.611 418.777 165.799 417.447ZM181.176 418.069L182.574 418.683C182.574 418.683 181.756 420.56 180.562 422.751C179.368 424.952 177.841 427.476 176.212 428.917C175.052 429.949 173.227 430.76 171.641 431.382C170.055 432.013 168.724 432.414 168.724 432.414L168.281 430.947C168.281 430.947 169.56 430.563 171.078 429.958C172.596 429.361 174.37 428.508 175.189 427.775C176.494 426.623 178.046 424.159 179.214 422.026C180.374 419.886 181.176 418.069 181.176 418.069Z" fill="white"/>
<ellipse cx="170.532" cy="21.205" rx="169.64" ry="21.205" fill="#D7D7D7"/>
<ellipse cx="170.22" cy="21.2683" rx="144.194" ry="18.0242" fill="url(#paint0_linear_162_969)" fill-opacity="0.55"/>
<defs>
<filter id="filter0_f_162_969" x="258.068" y="167.863" width="32.1619" height="32.162" filterUnits="userSpaceOnUse" color-interpolation-filters="sRGB">
<feFlood flood-opacity="0" result="BackgroundImageFix"/>
<feBlend mode="normal" in="SourceGraphic" in2="BackgroundImageFix" result="shape"/>
<feGaussianBlur stdDeviation="5" result="effect1_foregroundBlur_162_969"/>
</filter>
<filter id="filter1_f_162_969" x="48.7499" y="190.619" width="32.1617" height="32.1617" filterUnits="userSpaceOnUse" color-interpolation-filters="sRGB">
<feFlood flood-opacity="0" result="BackgroundImageFix"/>
<feBlend mode="normal" in="SourceGraphic" in2="BackgroundImageFix" result="shape"/>
<feGaussianBlur stdDeviation="5" result="effect1_foregroundBlur_162_969"/>
</filter>
<linearGradient id="paint0_linear_162_969" x1="26.0261" y1="21.2683" x2="210.933" y2="144.893" gradientUnits="userSpaceOnUse">
<stop offset="0.282342" stop-color="#919191"/>
<stop offset="1" stop-color="#3A3A3A"/>
</linearGradient>
</defs>
</svg>
